<svg width="30" height="27" viewBox="0 0 30 27" fill="none" xmlns="http://www.w3.org/2000/svg">
  <path d="M9.66568 17.8479H9.66707C9.66824 17.8479 9.66935 17.8477 9.67052 17.8477H25.6055C25.9978 17.8477 26.3428 17.5874 26.4505 17.2103L29.9662 4.90552C30.0419 4.64025 29.9888 4.35508 29.8229 4.13491C29.6567 3.91471 29.3969 3.78517 29.1212 3.78517H7.63874L7.01046 0.957783C6.92096 0.555637 6.56435 0.269531 6.15234 0.269531H0.878907C0.393449 0.269531 0 0.662982 0 1.14844C0 1.6339 0.393449 2.02735 0.878907 2.02735H5.4474C5.55862 2.52837 8.45402 15.5577 8.62063 16.3073C7.68657 16.7133 7.03124 17.6447 7.03124 18.7266C7.03124 20.1804 8.21413 21.3633 9.66796 21.3633H25.6055C26.091 21.3633 26.4844 20.9699 26.4844 20.4844C26.4844 19.9989 26.091 19.6055 25.6055 19.6055H9.66796C9.18346 19.6055 8.78907 19.2112 8.78907 18.7266C8.78907 18.2427 9.18207 17.8491 9.66568 17.8479ZM27.9559 5.54297L24.9424 16.0899H10.373L8.02918 5.54297H27.9559Z" fill="black" />
  <path d="M8.78908 24C8.78908 25.4538 9.97197 26.6367 11.4258 26.6367C12.8797 26.6367 14.0625 25.4538 14.0625 24C14.0625 22.5461 12.8797 21.3633 11.4258 21.3633C9.97197 21.3633 8.78908 22.5461 8.78908 24ZM11.4258 23.1211C11.9104 23.1211 12.3048 23.5155 12.3048 24C12.3048 24.4846 11.9104 24.8789 11.4258 24.8789C10.9413 24.8789 10.5469 24.4846 10.5469 24C10.5469 23.5155 10.9413 23.1211 11.4258 23.1211Z" fill="black" />
  <path d="M21.211 24C21.211 25.4538 22.3939 26.6367 23.8478 26.6367C25.3016 26.6367 26.4845 25.4538 26.4845 24C26.4845 22.5461 25.3016 21.3633 23.8478 21.3633C22.3939 21.3633 21.211 22.5461 21.211 24ZM23.8478 23.1211C24.3323 23.1211 24.7267 23.5155 24.7267 24C24.7267 24.4846 24.3323 24.8789 23.8478 24.8789C23.3633 24.8789 22.9689 24.4846 22.9689 24C22.9689 23.5155 23.3633 23.1211 23.8478 23.1211Z" fill="black" />
</svg>
  